<svg id="visual" viewBox="0 0 900 600" width="900" height="600" xmlns="http://www.w3.org/2000/svg" xmlns:xlink="http://www.w3.org/1999/xlink" version="1.1"><rect x="0" y="0" width="900" height="600" fill="#ffffff"></rect><path d="M0 447L25 458.3C50 469.7 100 492.3 150 494.3C200 496.3 250 477.7 300 467.8C350 458 400 457 450 466.3C500 475.7 550 495.3 600 504.2C650 513 700 511 750 503.2C800 495.3 850 481.7 875 474.8L900 468L900 601L875 601C850 601 800 601 750 601C700 601 650 601 600 601C550 601 500 601 450 601C400 601 350 601 300 601C250 601 200 601 150 601C100 601 50 601 25 601L0 601Z" fill="#bf484c"></path><path d="M0 461L25 471.7C50 482.3 100 503.7 150 506.3C200 509 250 493 300 487.3C350 481.7 400 486.3 450 493.5C500 500.7 550 510.3 600 507.3C650 504.3 700 488.7 750 489.2C800 489.7 850 506.3 875 514.7L900 523L900 601L875 601C850 601 800 601 750 601C700 601 650 601 600 601C550 601 500 601 450 601C400 601 350 601 300 601C250 601 200 601 150 601C100 601 50 601 25 601L0 601Z" fill="#c85154"></path><path d="M0 490L25 489C50 488 100 486 150 491.5C200 497 250 510 300 509.2C350 508.3 400 493.7 450 491.7C500 489.7 550 500.3 600 505.5C650 510.7 700 510.3 750 504.5C800 498.7 850 487.3 875 481.7L900 476L900 601L875 601C850 601 800 601 750 601C700 601 650 601 600 601C550 601 500 601 450 601C400 601 350 601 300 601C250 601 200 601 150 601C100 601 50 601 25 601L0 601Z" fill="#d05a5c"></path><path d="M0 501L25 506.7C50 512.3 100 523.7 150 527.5C200 531.3 250 527.7 300 528.7C350 529.7 400 535.3 450 538.7C500 542 550 543 600 540C650 537 700 530 750 524.7C800 519.3 850 515.7 875 513.8L900 512L900 601L875 601C850 601 800 601 750 601C700 601 650 601 600 601C550 601 500 601 450 601C400 601 350 601 300 601C250 601 200 601 150 601C100 601 50 601 25 601L0 601Z" fill="#d86265"></path><path d="M0 527L25 528.8C50 530.7 100 534.3 150 533.7C200 533 250 528 300 528.3C350 528.7 400 534.3 450 532.5C500 530.7 550 521.3 600 520C650 518.7 700 525.3 750 529.2C800 533 850 534 875 534.5L900 535L900 601L875 601C850 601 800 601 750 601C700 601 650 601 600 601C550 601 500 601 450 601C400 601 350 601 300 601C250 601 200 601 150 601C100 601 50 601 25 601L0 601Z" fill="#da6467"></path><path d="M0 556L25 553.5C50 551 100 546 150 545.5C200 545 250 549 300 549.3C350 549.7 400 546.3 450 547.7C500 549 550 555 600 556.2C650 557.3 700 553.7 750 552C800 550.3 850 550.7 875 550.8L900 551L900 601L875 601C850 601 800 601 750 601C700 601 650 601 600 601C550 601 500 601 450 601C400 601 350 601 300 601C250 601 200 601 150 601C100 601 50 601 25 601L0 601Z" fill="#d86265"></path><path d="M0 550L25 552.3C50 554.7 100 559.3 150 562.3C200 565.3 250 566.7 300 563.8C350 561 400 554 450 549.5C500 545 550 543 600 543.7C650 544.3 700 547.7 750 551.2C800 554.7 850 558.3 875 560.2L900 562L900 601L875 601C850 601 800 601 750 601C700 601 650 601 600 601C550 601 500 601 450 601C400 601 350 601 300 601C250 601 200 601 150 601C100 601 50 601 25 601L0 601Z" fill="#d05a5c"></path><path d="M0 556L25 556.3C50 556.7 100 557.3 150 561C200 564.7 250 571.3 300 574C350 576.7 400 575.3 450 574.8C500 574.3 550 574.7 600 576C650 577.3 700 579.7 750 578.3C800 577 850 572 875 569.5L900 567L900 601L875 601C850 601 800 601 750 601C700 601 650 601 600 601C550 601 500 601 450 601C400 601 350 601 300 601C250 601 200 601 150 601C100 601 50 601 25 601L0 601Z" fill="#c85154"></path><path d="M0 575L25 575C50 575 100 575 150 577C200 579 250 583 300 583.7C350 584.3 400 581.7 450 582.2C500 582.7 550 586.3 600 587.3C650 588.3 700 586.7 750 586.7C800 586.7 850 588.3 875 589.2L900 590L900 601L875 601C850 601 800 601 750 601C700 601 650 601 600 601C550 601 500 601 450 601C400 601 350 601 300 601C250 601 200 601 150 601C100 601 50 601 25 601L0 601Z" fill="#bf484c"></path></svg>