<?xml version="1.0" encoding="utf-8"?>
<!-- Generator: Adobe Illustrator 27.4.0, SVG Export Plug-In . SVG Version: 6.00 Build 0)  -->
<svg version="1.1" id="Vrstva_1" xmlns="http://www.w3.org/2000/svg" xmlns:xlink="http://www.w3.org/1999/xlink" x="0px" y="0px"
	 viewBox="0 0 737.7 594" style="enable-background:new 0 0 737.7 594;" xml:space="preserve">
<style type="text/css">
	.st0{fill:#3F3D56;}
	.st1{fill:#CCCCCC;}
	.st2{fill:#DA6467;}
	.st3{fill:#2F2E41;}
	.st4{fill:#FFB8B8;}
	.st5{fill:#F2F2F2;}
</style>
<path class="st0" d="M267.7,450.1c-4.6-11-0.5-23.8,9.7-30c1.6-1,0.1-3.6-1.5-2.6c-11.7,7-16.3,21.6-10.7,34.1
	C265.9,453.4,268.5,451.9,267.7,450.1L267.7,450.1z"/>
<path class="st0" d="M268.6,454.1c-4-7.1-3.1-15.7-1.6-23.4c1.5-8.1,3.5-16.3,1.8-24.5c-0.8-4-2.6-7.7-5.3-10.7
	c-1.3-1.4-3.4,0.7-2.1,2.1c5.1,5.5,5.6,13.5,4.8,20.6c-1,8.4-3.7,16.5-3.4,25c0.1,4.3,1.2,8.5,3.2,12.3c0.4,0.7,1.4,0.9,2.1,0.5
	C268.7,455.7,269,454.8,268.6,454.1L268.6,454.1z"/>
<path class="st1" d="M290.2,477h-50.6c-2.5,0-4.5-2-4.5-4.5v-14.9c0-8,6.5-14.5,14.4-14.5h7.4c0.8,0,1.5-0.7,1.5-1.5v-7
	c0-1.4,1.1-2.5,2.5-2.5h7.9c1.4,0,2.5,1.1,2.5,2.5v7c0,0.8,0.7,1.5,1.5,1.5h7.4c8,0,14.4,6.5,14.4,14.5v14.9
	C294.6,474.9,292.6,476.9,290.2,477z"/>
<path class="st2" d="M265.6,387.3c1.1,5.7-0.3,10.7-2.9,11.2c-2.7,0.5-5.7-3.7-6.8-9.4s2.2-15.1,2.2-15.1S264.5,381.6,265.6,387.3z"
	/>
<path class="st2" d="M286.1,413.7c-3.4,4.7-7.9,7.2-10.1,5.6c-2.2-1.6-1.3-6.7,2.1-11.4c3.4-4.7,12.5-8.8,12.5-8.8
	S289.4,409,286.1,413.7z"/>
<path class="st0" d="M174.4,91.2c-4.6-11-0.5-23.8,9.7-30c1.6-1,0.1-3.6-1.5-2.6c-11.7,7-16.3,21.6-10.7,34.1
	C172.6,94.5,175.1,92.9,174.4,91.2L174.4,91.2z"/>
<path class="st0" d="M175.2,95.2c-4-7.1-3.1-15.7-1.6-23.4c1.5-8.1,3.5-16.3,1.8-24.5c-0.8-4-2.6-7.7-5.3-10.7
	c-1.3-1.4-3.4,0.7-2.1,2.1c5.1,5.5,5.6,13.5,4.8,20.6c-1,8.4-3.7,16.5-3.4,25c0.1,4.3,1.2,8.5,3.2,12.3c0.4,0.7,1.4,0.9,2.1,0.5
	C175.4,96.8,175.6,95.9,175.2,95.2L175.2,95.2z"/>
<path class="st1" d="M196.8,118h-50.6c-2.5,0-4.5-2-4.5-4.5V98.6c0-8,6.5-14.5,14.4-14.5h7.4c0.8,0,1.5-0.7,1.5-1.5v-7
	c0-1.4,1.1-2.5,2.5-2.5h7.9c1.4,0,2.5,1.1,2.5,2.5v7c0,0.8,0.7,1.5,1.5,1.5h7.4c8,0,14.4,6.5,14.4,14.5v14.9
	C201.3,116,199.3,118,196.8,118z"/>
<path class="st2" d="M172.3,28.4c1.1,5.7-0.3,10.7-2.9,11.2c-2.7,0.5-5.7-3.7-6.8-9.4s2.2-15.1,2.2-15.1S171.2,22.7,172.3,28.4z"/>
<path class="st2" d="M192.7,54.8c-3.4,4.7-7.9,7.2-10.1,5.6c-2.2-1.6-1.3-6.7,2.1-11.4s12.5-8.8,12.5-8.8S196.1,50.1,192.7,54.8z"/>
<rect x="33" y="272.1" class="st2" width="40.7" height="15"/>
<rect x="33" y="320.9" class="st2" width="40.7" height="15"/>
<rect x="95.5" y="272.1" class="st2" width="40.7" height="15"/>
<rect x="95.5" y="320.9" class="st2" width="40.7" height="15"/>
<rect x="194.8" y="151.4" class="st2" width="40.7" height="15"/>
<rect x="194.8" y="200.3" class="st2" width="40.7" height="15"/>
<rect x="257.4" y="151.4" class="st2" width="40.7" height="15"/>
<rect x="257.4" y="200.3" class="st2" width="40.7" height="15"/>
<polygon class="st2" points="148.1,277.5 186.2,263.1 191.4,277.1 153.3,291.5 "/>
<polygon class="st2" points="165.2,323.3 203.3,308.9 208.5,322.9 170.4,337.3 "/>
<polygon class="st2" points="11,158.9 49.1,144.5 54.4,158.5 16.3,172.9 "/>
<polygon class="st2" points="28.1,204.6 66.3,190.2 71.5,204.2 33.4,218.6 "/>
<path class="st0" d="M321.9-0.1H18.1C8.2-0.1,0.2,8,0.2,17.8v557.3c0,9.9,8,17.9,17.9,17.9h303.9c9.8,0,17.9-8.1,17.9-17.9V17.8
	C339.8,8,331.8-0.1,321.9-0.1z M321.9,589.1H18.1c-7.7,0-13.9-6.3-13.9-14V478h331.7v97.2C335.8,582.8,329.6,589.1,321.9,589.1z
	 M335.8,115H4.2V17.8c0-7.7,6.2-13.9,13.9-14h303.9c7.7,0,13.9,6.3,13.9,14V115z M4.2,474V359.8h331.7V474H4.2z M34.9,352.8v-96.7
	c0-1.1,0.9-2,2-2h33.8c1.1,0,2,0.9,2,2v96.7c0,1.1-0.9,2-2,2H36.9C35.8,354.8,35,353.9,34.9,352.8z M97.5,352.8v-96.7
	c0-1.1,0.9-2,2-2h33.8c1.1,0,2,0.9,2,2v96.7c0,1.1-0.9,2-2,2H99.5C98.4,354.8,97.5,353.9,97.5,352.8z M144.3,261.9
	c-0.4-1,0.1-2.2,1.2-2.6l31.6-11.9c0.2-0.1,0.5-0.1,0.7-0.1c0.8,0,1.6,0.5,1.9,1.3l33.9,90.5c0.4,1-0.1,2.2-1.2,2.6l-31.6,11.9
	c-0.5,0.2-1,0.2-1.5,0c-0.5-0.2-0.9-0.6-1-1.1L144.3,261.9z M186.1,355.8l27.6-10.4c3.1-1.2,4.6-4.6,3.5-7.7l-33.9-90.5
	c-0.6-1.5-1.7-2.7-3.1-3.3c-1.4-0.7-3.1-0.7-4.6-0.1l-31.6,11.9c-3.1,1.2-4.6,4.6-3.5,7.7l33.9,90.5c0.3,0.8,0.7,1.4,1.3,2h-37.3
	c0.5-0.9,0.8-1.9,0.8-3v-96.7c0-3.3-2.7-6-6-6H99.5c-3.3,0-6,2.7-6,6v96.7c0,1.1,0.3,2.1,0.8,3H75.9c0.5-0.9,0.8-1.9,0.8-3v-96.7
	c0-3.3-2.7-6-6-6H36.9c-3.3,0-6,2.7-6,6v96.7c0,1.1,0.3,2.1,0.8,3H4.2V240.1h331.7v115.8H186.1z M4.2,146.3l33.3,88.9
	c0.1,0.3,0.3,0.6,0.4,0.9H4.2V146.3z M43.7,234.9c-0.5,0.2-1,0.2-1.5,0c-0.5-0.2-0.9-0.6-1-1.1L7.3,143.2c-0.4-1,0.1-2.2,1.2-2.6
	l31.6-11.9c0.2-0.1,0.5-0.1,0.7-0.1c0.8,0,1.6,0.5,1.9,1.3l33.9,90.5c0.4,1-0.1,2.2-1.2,2.6L43.7,234.9z M259.4,232.2v-96.7
	c0-1.1,0.9-2,2-2h33.8c1.1,0,2,0.9,2,2v96.7c0,1.1-0.9,2-2,2h-33.8C260.3,234.2,259.4,233.3,259.4,232.2z M196.8,232.2v-96.7
	c0-1.1,0.9-2,2-2h33.8c1.1,0,2,0.9,2,2v96.7c0,1.1-0.9,2-2,2h-33.8C197.7,234.2,196.8,233.3,196.8,232.2z M299.7,236.1
	c0.9-1,1.4-2.4,1.4-3.9v-96.7c0-3.3-2.7-6-6-6h-33.8c-3.3,0-6,2.7-6,6v96.7c0,1.5,0.5,2.8,1.4,3.9h-19.7c0.9-1,1.4-2.4,1.4-3.9
	v-96.7c0-3.3-2.7-6-6-6h-33.8c-3.3,0-6,2.7-6,6v96.7c0,1.5,0.5,2.8,1.4,3.9H52.1l24.7-9.3c3.1-1.2,4.6-4.6,3.5-7.7l-33.9-90.5
	c-0.6-1.5-1.7-2.7-3.1-3.3c-1.4-0.7-3.1-0.7-4.6-0.1L7,136.9c-1.2,0.5-2.2,1.3-2.9,2.3V119h331.7v117.1H299.7z"/>
<circle class="st3" cx="627" cy="219" r="31"/>
<path class="st4" d="M489.3,360.5c5.5,2.1,11.8-0.6,13.9-6.1c0.2-0.6,0.4-1.2,0.5-1.8l85.2-53.8l-15.5-17.5l-78.9,58.4
	c-5.9-0.8-11.3,3.4-12.1,9.3C481.8,354,484.6,358.7,489.3,360.5L489.3,360.5z"/>
<path class="st3" d="M571.1,313c-1.5,0-3-0.8-3.8-2.1l-9.9-15.3c-1.3-2-0.8-4.7,1.1-6.1l33-23.9c6.6-4.8,15.9-3.3,20.6,3.3
	c4.8,6.6,3.3,15.9-3.3,20.6c-0.2,0.2-0.5,0.3-0.7,0.5l-34.7,22.2C572.8,312.8,572,313,571.1,313z"/>
<polygon class="st4" points="585.9,580.8 573.6,580.8 567.8,533.6 585.9,533.6 "/>
<path class="st3" d="M564.9,577.3h23.6l0,0v14.9l0,0H550l0,0l0,0C550,584,556.7,577.3,564.9,577.3z"/>
<polygon class="st4" points="643.1,571.7 631.3,575 612.9,531 630.3,526.2 "/>
<path class="st3" d="M621.9,574l22.8-6.4l0,0l4,14.3l0,0l-37.1,10.4l0,0l0,0C609.4,584.4,614,576.2,621.9,574z"/>
<path class="st2" d="M676.2,499.1l-47.6-56.2l28.9-35c1.6-1.9,4.4-2.2,6.3-0.6c0.2,0.2,0.4,0.4,0.6,0.6l43.7,53.6L676.2,499.1z"/>
<path class="st5" d="M630.5,443.4L630.5,443.4c0.7-1.3,1.6-2.4,2.6-3.5l27.6-27.9c1.1-1.1,2.5-1.8,4.1-1.8c3.1-0.1,8.3,0.2,9.8,3.6
	l-37.2,30.5L630.5,443.4z"/>
<path class="st2" d="M677.8,511c-2.1-0.1-4.2-0.7-6-1.9l-0.1-0.1l-43.6-66.7l7.2-0.7l38.8-30.2c2-1.5,4.8-1.2,6.3,0.8
	c0.1,0.1,0.1,0.2,0.2,0.3l42.4,64.1c1.4,2.1,0.8,4.8-1.2,6.2l-41,27.7C679.8,510.8,678.8,511,677.8,511z"/>
<path class="st0" d="M662.4,465.4c-0.8,0-1.6-0.4-2.1-1.1l-5-7.4c-0.8-1.1-0.5-2.7,0.7-3.5l25.7-17.3c1.1-0.8,2.7-0.5,3.5,0.7l5,7.4
	c0.8,1.1,0.5,2.7-0.7,3.5L663.8,465C663.4,465.2,662.9,465.4,662.4,465.4z"/>
<path class="st3" d="M565.9,573.7c-2.8,0-5.2-2.2-5.4-5c-2.2-24.8-13.1-149.7-14.3-174.9c-1.3-28,22-72.4,22.2-72.8l0.2-0.3
	l11.5,1.4v1.3l11,1.3l21.2,2.1l6.1,74.3l2.7,50.4l25.3,102.9c0.6,2.4-0.8,4.8-3.2,5.4l-22,6c-2.4,0.6-4.8-0.7-5.5-3.1L594.9,490
	c-0.2-0.8-1.1-1.3-1.9-1c-0.7,0.2-1.1,0.8-1.1,1.5l2.2,70.9c0,1.5-0.6,2.9-1.6,3.9c-5,4.7-18.4,7.3-25.8,8.3
	C566.4,573.7,566.1,573.7,565.9,573.7z"/>
<path class="st2" d="M631.9,261.4c-3.5-3.6-26.5,1.4-31.6,6.7l-34.9,57.1l57.8,10.7l12.8-72.6L631.9,261.4z"/>
<path class="st3" d="M616.8,406.5c-1.2,0-2.5-0.2-3.7-0.6c-3.4-1.2-7.5-2.4-12.2-3.6c-20.8-5.4-28.2-22.5-21.9-51l0.2-0.7
	c5.9-27,17.1-52.6,33-75.3l2.5-3.5c6-8.7,16.7-12.9,27-10.8c9.4,1.9,14.4,4.7,15,8.3c1.1,7-19.9,92.3-28.9,128.6
	C626.4,403,621.9,406.5,616.8,406.5L616.8,406.5z"/>
<path class="st3" d="M545,395.5c-0.5,0-1.1-0.1-1.6-0.2l-6.8-2.2c-2.8-0.9-4.3-3.9-3.4-6.6c0-0.2,0.1-0.3,0.2-0.5l35.8-84.1
	c6.9-16,18.9-29.4,34.1-37.8h0c0.4-0.2,1-0.3,1.5-0.1c0.4,0.1,0.8,0.5,1,0.9c4.2,9.3-18.7,53.1-37.2,88.4
	c-9.4,18.1-17.6,33.6-18.5,38.1C549.6,393.8,547.5,395.5,545,395.5z"/>
<path class="st4" d="M655.9,414.7c4.8-3.5,5.7-10.3,2.2-15c-0.4-0.5-0.8-1-1.3-1.4l-0.3-100.8l-23,3.9l7.5,97.9
	c-3.8,4.6-3.1,11.4,1.5,15.2C646.4,417.6,651.9,417.7,655.9,414.7z"/>
<path class="st3" d="M637.1,322.5c-2.4,0-4.3-1.8-4.5-4.2l-2.7-40.7c-0.5-8.1,5.6-15.2,13.8-15.7c8.2-0.5,15.2,5.6,15.7,13.8
	c0,0.3,0,0.6,0,0.8l0.4,41.2c0,2.5-2,4.5-4.4,4.5L637.1,322.5L637.1,322.5z"/>
<circle class="st4" cx="620.6" cy="227" r="24.6"/>
<path class="st3" d="M641,244.2c1.8-5.8,3.5-12.7-0.1-17.6c-2.6-3.5-7.3-4.9-11.7-5.1s-8.8,0.5-13.2,0.2s-9-2.1-11.3-5.9
	c-2.9-4.9-0.4-11.7,4.2-15s10.8-3.8,16.4-3c7.2,0.8,13.9,3.9,19.3,8.6c5.3,4.9,8.7,11.8,8.5,19s-4.2,14.3-10.6,17.5"/>
<path class="st3" d="M634.9,190.5c-5.9-1.8-8.6-9.6-6-15.1s9.4-8.5,15.5-7.7s11.5,4.7,15.2,9.6s5.9,10.8,7.8,16.6s3.4,11.9,6,17.5
	c8.2,17.5,25.2,29.3,44.5,30.9c4.1,0.3,8.4,0.1,12.2-1.6s6.9-5.2,7.3-9.3c2.1,14.6-6.4,30.2-19.8,36.3s-30.8,2.2-40.3-9.1
	c-9.3-11-10.8-26.6-10.6-41.1c0.1-4,0.2-8-0.9-11.8s-3.7-7.4-7.5-8.6c-3-1-6.3-0.3-9.5,0.4s-6.4,1.4-9.5,0.3s-5.5-4.5-4.2-7.4"/>
</svg>
